<?xml version="1.0" ?>
<!-- Uploaded to: SVG Repo, www.svgrepo.com, Generator: SVG Repo Mixer Tools -->
<svg width="800px" height="800px" viewBox="0 0 32 32" id="Layer_1" version="1.1" xml:space="preserve" xmlns="http://www.w3.org/2000/svg" xmlns:xlink="http://www.w3.org/1999/xlink">
<style type="text/css">
	.st0{fill:#00BBB4;}
	.st1{fill:#1B75BC;}
	.st2{fill:#F15A29;}
</style>
<g>
<polygon class="st1" points="10.871582,2 8.119873,16 23.5336304,16 30.5,2  "/>
<g>
<circle class="st1" cx="19.6256008" cy="28" r="2"/>
</g>
<g>
<circle class="st1" cx="12.2049274" cy="28" r="2"/>
</g>
<path class="st1" d="M26.1923828,21.6762695H8.0234375l3.8295898-19.4833984   C11.8659668,2.1270752,11.8521118,2.0645752,11.8519897,2H9.8522339H2.5c-0.5522461,0-1,0.4477539-1,1s0.4477539,1,1,1h6.9591064   L5.8261719,22.4833984c-0.0576172,0.293457,0.019043,0.597168,0.2089844,0.828125s0.4736328,0.3647461,0.7724609,0.3647461   h19.3847656c0.5522461,0,1-0.4477539,1-1S26.7446289,21.6762695,26.1923828,21.6762695z"/>
</g>
</svg>